<svg id="Ebene_1" data-name="Ebene 1" xmlns="http://www.w3.org/2000/svg" viewBox="0 0 352.18 352.36"><defs><style>.cls-1{fill:#fff;}</style></defs><path class="cls-1" d="M45.08,250c0,23.33-.2,46.67.11,70a116.86,116.86,0,0,0,2.4,24.3C58.74,393.07,99.92,425.84,150,426q71.25.19,142.48-.08a103.75,103.75,0,0,0,23.27-2.51c49.3-11.75,81.32-52.53,81.38-103.21.06-46.84.12-93.67-.09-140.51a113.7,113.7,0,0,0-2.32-23.81C384.06,107.55,342.61,74.16,293,73.92c-47.83-.24-95.66-.38-143.48.19a109.83,109.83,0,0,0-33.31,5.35c-44,14.86-71,53.52-71.09,100C45,203,45.08,226.45,45.08,250Z" transform="translate(-45.02 -73.71)"/><path d="M45.08,250c0-23.5,0-47,0-70.5.1-46.47,27.13-85.13,71.09-100a109.83,109.83,0,0,1,33.31-5.35c47.82-.57,95.65-.43,143.48-.19,49.64.24,91.09,33.63,101.76,81.94a113.7,113.7,0,0,1,2.32,23.81c.21,46.84.15,93.67.09,140.51-.06,50.68-32.08,91.46-81.38,103.21a103.75,103.75,0,0,1-23.27,2.51q-71.24.33-142.48.08c-50.09-.14-91.27-32.91-102.42-81.73a116.86,116.86,0,0,1-2.4-24.3C44.88,296.62,45.08,273.28,45.08,250Zm320.06.49c0-23.5.11-47-.07-70.5a83.3,83.3,0,0,0-1.61-17.36c-7.55-34.05-35.7-56.57-70.86-56.67q-71.48-.19-143,0a74,74,0,0,0-15.86,1.6c-34,7.59-56.55,35.72-56.65,70.89q-.2,71.49,0,143a74,74,0,0,0,1.6,15.86c7.59,34,35.71,56.56,70.87,56.66q71.49.21,143,0a74.69,74.69,0,0,0,15.86-1.61c33.85-7.54,56.4-35.57,56.65-70.38C365.28,298.11,365.14,274.27,365.14,250.44Z" transform="translate(-45.02 -73.71)"/><path d="M317.12,250c0,52.77-43.46,96.11-96.17,96s-96.07-43.63-95.84-96.31S168.45,154,221,153.91,317.15,197.23,317.12,250Zm-32-.22A64,64,0,1,0,221,314,63.89,63.89,0,0,0,285.11,249.76Z" transform="translate(-45.02 -73.71)"/><path d="M330.11,155.28a14.48,14.48,0,1,1-14.35-14.36A14.55,14.55,0,0,1,330.11,155.28Z" transform="translate(-45.02 -73.71)"/></svg>