<svg id="Ebene_1" data-name="Ebene 1" xmlns="http://www.w3.org/2000/svg" viewBox="0 0 396.42 396.43"><defs><style>.cls-1{fill:#fff;}</style></defs><path class="cls-1" d="M423,251.29q0-73.65,0-147.31c-.05-34.1-18.05-52.13-52.14-52.15q-146-.09-292,0c-34.1,0-52.14,18-52.16,52.13q-.07,146,0,292.06c0,34.1,18,52.13,52.13,52.15q146,.09,292.06,0c34.1,0,52.11-18,52.16-52.13Q423,323.67,423,251.29Z" transform="translate(-26.54 -51.79)"/><path d="M423,251.29q0,72.38,0,144.75c-.05,34.09-18.06,52.11-52.16,52.13q-146,.09-292.06,0c-34.09,0-52.11-18.05-52.13-52.15q-.07-146,0-292.06c0-34.09,18.06-52.11,52.16-52.13q146-.09,292.05,0c34.09,0,52.09,18,52.14,52.15Q423,177.65,423,251.29ZM224.32,87.44q-72.33,0-144.67,0c-15.2,0-17.42,2.1-17.43,16.7,0,97.3.09,194.6-.18,291.9,0,12.09,4.39,16.69,16.56,16.65,97.29-.27,194.59-.13,291.89-.17,14.71,0,16.8-2.2,16.81-17.34q0-145.3,0-290.62c0-15-2.13-17.1-17-17.12Q297.3,87.37,224.32,87.44Z" transform="translate(-26.54 -51.79)"/><path d="M186.23,205.78h49.39c.34,7.1.66,13.61,1.08,22.41,15.37-21,34.62-28.36,57.88-26.48,32.84,2.66,52.1,19,53.82,51.89,2.09,39.92.5,80,.5,121.19H297.79q0-28.43,0-57c0-13.22.23-26.46-.25-39.66-.72-19.37-10-30-25.76-30.5-18.32-.59-31.25,9.65-32.39,28.81-1.52,25.51-.93,51.15-1.21,76.73-.07,6.8,0,13.6,0,21.55H186.23Z" transform="translate(-26.54 -51.79)"/><path d="M151.08,375.32H99.8V206h51.28Z" transform="translate(-26.54 -51.79)"/><path d="M123.92,180.14a30.25,30.25,0,0,1-30-31.26A31,31,0,0,1,124.47,119a30.51,30.51,0,0,1,30.47,31C154.83,167.53,141.57,180.41,123.92,180.14Z" transform="translate(-26.54 -51.79)"/></svg>