<?xml version="1.0" encoding="utf-8"?>
<!-- Generator: Adobe Illustrator 26.0.2, SVG Export Plug-In . SVG Version: 6.00 Build 0)  -->
<svg version="1.1" id="Ebene_1" xmlns="http://www.w3.org/2000/svg" xmlns:xlink="http://www.w3.org/1999/xlink" x="0px" y="0px"
	 viewBox="0 0 1920 207" style="enable-background:new 0 0 1920 207;" xml:space="preserve">
<g>
	<path d="M126.83,137.73H56.78L41.02,182.1H21.2L79.76,22.19h24.77l58.56,159.91h-20.72L126.83,137.73z M120.97,121.29L91.69,38.41
		l-29.28,82.88H120.97z"/>
	<path d="M283.58,164.54v17.57H177.72V22.19h19.14v142.34H283.58z"/>
	<path d="M410.6,164.76v17.34H297.99V22.19h111.49v17.34h-91.67v50.9h82.66v16.89h-82.66v57.43H410.6z"/>
	<path d="M421.18,22.19h22.07l42.12,64.64l43.69-64.64h20.72l-54.28,79.73l54.28,80.18h-22.07l-42.34-65.09L441.9,182.1h-20.72
		l54.05-80.18L421.18,22.19z"/>
	<path d="M663.51,137.73h-70.04L577.7,182.1h-19.82l58.56-159.91h24.77l58.56,159.91h-20.72L663.51,137.73z M657.65,121.29
		l-29.28-82.88l-29.28,82.88H657.65z"/>
	<path d="M843.23,22.19V182.1h-25.23L733.55,45.62V182.1H714.4V22.19h25.23l84.46,136.48V22.19H843.23z"/>
	<path d="M992.32,102.15c0,47.3-23.2,79.95-71.62,79.95h-59.01V22.19h59.01C969.13,22.19,992.32,54.85,992.32,102.15z M972.5,102.15
		c0-37.16-16.89-62.61-54.05-62.61h-37.61v125.22h37.61C955.61,164.76,972.5,139.31,972.5,102.15z"/>
	<path d="M1122.5,164.76v17.34h-112.61V22.19h111.48v17.34h-91.67v50.9h82.66v16.89h-82.66v57.43H1122.5z"/>
	<path d="M1203.8,22.19c31.08,0,51.58,16.67,51.58,42.12c0,26.58-20.04,42.34-48.87,42.34c16.89,4.05,22.75,10.81,37.39,36.26
		l22.75,39.19h-21.4l-22.75-39.19c-14.64-25.23-19.82-31.31-42.34-31.31h-23.65v70.49h-19.14V22.19H1203.8z M1235.78,67.24
		c0-18.47-12.84-27.7-37.16-27.7h-42.12v55.4h42.12C1222.94,94.94,1235.78,85.48,1235.78,67.24z"/>
	<path d="M1415.27,137.73h-70.04l-15.77,44.37h-19.82l58.56-159.91h24.77l58.56,159.91h-20.72L1415.27,137.73z M1409.42,121.29
		l-29.28-82.88l-29.28,82.88H1409.42z"/>
	<path d="M1456.71,128.5V22.19h19.14v104.28c0,27.03,16.44,40.99,41.89,40.99c25.45,0,41.89-13.96,41.89-40.99V22.19h19.14V128.5
		c0,38.51-26.58,56.31-61.04,56.31C1483.28,184.81,1456.71,167.01,1456.71,128.5z"/>
	<path d="M1664.58,22.19c31.08,0,51.58,16.67,51.58,42.12c0,26.58-20.04,42.34-48.87,42.34c16.89,4.05,22.75,10.81,37.39,36.26
		l22.75,39.19h-21.4l-22.75-39.19c-14.64-25.23-19.82-31.31-42.34-31.31h-23.65v70.49h-19.14V22.19H1664.58z M1696.56,67.24
		c0-18.47-12.84-27.7-37.16-27.7h-42.12v55.4h42.12C1683.72,94.94,1696.56,85.48,1696.56,67.24z"/>
	<path d="M1761.42,182.1h-19.14V22.19h19.14V182.1z"/>
	<path d="M1858.26,164.54c11.49,0,20.95-9.68,20.95-21.17c0-8.56-4.28-16.89-12.39-20.5l-60.36-27.03
		c-15.99-7.21-24.55-20.27-24.55-35.59c0-21.4,19.14-38.06,40.76-38.06h71.62v17.57h-71.62c-11.71,0-21.17,8.78-21.17,20.27
		c0,8.56,4.5,15.99,12.39,19.59l60.36,27.03c17.12,7.66,24.55,21.17,24.55,36.71c0,21.4-19.14,38.74-40.54,38.74h-72.97v-17.57
		H1858.26z"/>
</g>
</svg>
