<svg id="Ebene_1" data-name="Ebene 1" xmlns="http://www.w3.org/2000/svg" viewBox="0 0 1877.6 162.61"><defs><style>.cls-1{fill:#fff;}</style></defs><path class="cls-1" d="M126.83,137.73h-70L41,182.1H21.2L79.76,22.19h24.77L163.09,182.1H142.37ZM121,121.29,91.69,38.41,62.41,121.29Z" transform="translate(-21.2 -22.19)"/><path class="cls-1" d="M283.58,164.54V182.1H177.72V22.19h19.15V164.54Z" transform="translate(-21.2 -22.19)"/><path class="cls-1" d="M410.6,164.76V182.1H298V22.19H409.47V39.54H317.81v50.9h82.65v16.89H317.81v57.43Z" transform="translate(-21.2 -22.19)"/><path class="cls-1" d="M421.18,22.19h22.07l42.12,64.64,43.69-64.64h20.72L495.5,101.92l54.28,80.18H527.71L485.37,117,441.9,182.1H421.18l54.05-80.18Z" transform="translate(-21.2 -22.19)"/><path class="cls-1" d="M663.51,137.73h-70L577.7,182.1H557.88L616.44,22.19h24.77L699.77,182.1H679.05Zm-5.86-16.44L628.38,38.41,599.1,121.29Z" transform="translate(-21.2 -22.19)"/><path class="cls-1" d="M843.23,22.19V182.1H818L733.55,45.62V182.1H714.4V22.19h25.23l84.46,136.49V22.19Z" transform="translate(-21.2 -22.19)"/><path class="cls-1" d="M992.32,102.15c0,47.3-23.19,79.95-71.62,79.95h-59V22.19h59C969.13,22.19,992.32,54.85,992.32,102.15Zm-19.82,0c0-37.16-16.89-62.61-54-62.61H880.84V164.76h37.61C955.61,164.76,972.5,139.31,972.5,102.15Z" transform="translate(-21.2 -22.19)"/><path class="cls-1" d="M1122.5,164.76V182.1H1009.89V22.19h111.48V39.54h-91.66v50.9h82.65v16.89h-82.65v57.43Z" transform="translate(-21.2 -22.19)"/><path class="cls-1" d="M1203.8,22.19c31.08,0,51.57,16.67,51.57,42.12,0,26.58-20,42.34-48.87,42.34,16.89,4.06,22.75,10.81,37.39,36.26l22.74,39.19h-21.39l-22.75-39.19c-14.64-25.22-19.82-31.3-42.34-31.3H1156.5V182.1h-19.14V22.19Zm32,45.05c0-18.47-12.84-27.7-37.16-27.7H1156.5v55.4h42.12C1222.94,94.94,1235.78,85.48,1235.78,67.24Z" transform="translate(-21.2 -22.19)"/><path class="cls-1" d="M1415.27,137.73h-70l-15.77,44.37h-19.82L1368.2,22.19H1393l58.55,159.91h-20.72Zm-5.85-16.44-29.28-82.88-29.28,82.88Z" transform="translate(-21.2 -22.19)"/><path class="cls-1" d="M1456.71,128.5V22.19h19.14V126.47c0,27,16.44,41,41.89,41s41.89-14,41.89-41V22.19h19.15V128.5c0,38.51-26.58,56.31-61,56.31S1456.71,167,1456.71,128.5Z" transform="translate(-21.2 -22.19)"/><path class="cls-1" d="M1664.58,22.19c31.08,0,51.58,16.67,51.58,42.12,0,26.58-20.05,42.34-48.88,42.34,16.89,4.06,22.75,10.81,37.39,36.26l22.75,39.19H1706l-22.75-39.19c-14.64-25.22-19.82-31.3-42.34-31.3h-23.65V182.1h-19.14V22.19Zm32,45.05c0-18.47-12.84-27.7-37.16-27.7h-42.12v55.4h42.12C1683.72,94.94,1696.56,85.48,1696.56,67.24Z" transform="translate(-21.2 -22.19)"/><path class="cls-1" d="M1761.42,182.1h-19.15V22.19h19.15Z" transform="translate(-21.2 -22.19)"/><path class="cls-1" d="M1858.26,164.54a21.25,21.25,0,0,0,21-21.18c0-8.55-4.28-16.89-12.39-20.49l-60.36-27c-16-7.2-24.55-20.27-24.55-35.58,0-21.4,19.15-38.07,40.77-38.07h71.62V39.76h-71.62c-11.71,0-21.17,8.79-21.17,20.27a21,21,0,0,0,12.38,19.6l60.36,27c17.12,7.66,24.55,21.17,24.55,36.71,0,21.4-19.14,38.74-40.54,38.74h-73V164.54Z" transform="translate(-21.2 -22.19)"/></svg>