<svg id="Ebene_1" data-name="Ebene 1" xmlns="http://www.w3.org/2000/svg" viewBox="0 0 1245.44 355.46"><defs><style>.cls-1{fill:#fff;}</style></defs><path class="cls-1" d="M126.83,137.73h-70L41,182.1H21.2L79.76,22.19h24.77L163.09,182.1H142.37ZM121,121.29,91.69,38.41,62.41,121.29Z" transform="translate(-21.2 -22.19)"/><path class="cls-1" d="M283.58,164.54V182.1H177.72V22.19h19.15V164.54Z" transform="translate(-21.2 -22.19)"/><path class="cls-1" d="M410.6,164.76V182.1H298V22.19H409.47V39.54H317.81v50.9h82.65v16.89H317.81v57.43Z" transform="translate(-21.2 -22.19)"/><path class="cls-1" d="M421.18,22.19h22.07l42.12,64.64,43.69-64.64h20.72L495.5,101.92l54.28,80.18H527.71L485.37,117,441.9,182.1H421.18l54.05-80.18Z" transform="translate(-21.2 -22.19)"/><path class="cls-1" d="M663.51,137.73h-70L577.7,182.1H557.88L616.44,22.19h24.77L699.77,182.1H679.05Zm-5.86-16.44L628.38,38.41,599.1,121.29Z" transform="translate(-21.2 -22.19)"/><path class="cls-1" d="M843.23,22.19V182.1H818L733.55,45.62V182.1H714.4V22.19h25.23l84.46,136.49V22.19Z" transform="translate(-21.2 -22.19)"/><path class="cls-1" d="M992.32,102.15c0,47.3-23.19,79.95-71.62,79.95h-59V22.19h59C969.13,22.19,992.32,54.85,992.32,102.15Zm-19.82,0c0-37.16-16.89-62.61-54-62.61H880.84V164.76h37.61C955.61,164.76,972.5,139.31,972.5,102.15Z" transform="translate(-21.2 -22.19)"/><path class="cls-1" d="M1122.5,164.76V182.1H1009.89V22.19h111.48V39.54h-91.66v50.9h82.65v16.89h-82.65v57.43Z" transform="translate(-21.2 -22.19)"/><path class="cls-1" d="M1203.8,22.19c31.08,0,51.57,16.67,51.57,42.12,0,26.58-20,42.34-48.87,42.34,16.89,4.06,22.75,10.81,37.39,36.26l22.74,39.19h-21.39l-22.75-39.19c-14.64-25.22-19.82-31.3-42.34-31.3H1156.5V182.1h-19.14V22.19Zm32,45.05c0-18.47-12.84-27.7-37.16-27.7H1156.5v55.4h42.12C1222.94,94.94,1235.78,85.48,1235.78,67.24Z" transform="translate(-21.2 -22.19)"/><path class="cls-1" d="M451.05,330.58H381L365.24,375H345.42L404,215h24.77L487.31,375H466.59Zm-5.86-16.44-29.27-82.88-29.28,82.88Z" transform="translate(-21.2 -22.19)"/><path class="cls-1" d="M492.48,321.35V215h19.15V319.32c0,27,16.44,41,41.89,41s41.89-14,41.89-41V215h19.15V321.35c0,38.51-26.58,56.3-61,56.3S492.48,359.86,492.48,321.35Z" transform="translate(-21.2 -22.19)"/><path class="cls-1" d="M700.36,215c31.08,0,51.57,16.67,51.57,42.12,0,26.58-20,42.34-48.87,42.34,16.89,4.06,22.75,10.81,37.39,36.26L763.19,375H741.8l-22.75-39.19c-14.64-25.22-19.82-31.3-42.34-31.3H653.06V375H633.92V215Zm32,45c0-18.47-12.84-27.7-37.16-27.7H653.06v55.4h42.12C719.5,287.79,732.34,278.33,732.34,260.09Z" transform="translate(-21.2 -22.19)"/><path class="cls-1" d="M797.2,375H778.05V215H797.2Z" transform="translate(-21.2 -22.19)"/><path class="cls-1" d="M894,357.38a21.24,21.24,0,0,0,21-21.17c0-8.56-4.28-16.89-12.39-20.49l-60.36-27c-16-7.21-24.55-20.27-24.55-35.58,0-21.4,19.14-38.07,40.76-38.07h71.63v17.57H858.45c-11.71,0-21.17,8.78-21.17,20.27a21,21,0,0,0,12.39,19.6l60.36,27c17.12,7.66,24.55,21.17,24.55,36.71,0,21.4-19.14,38.74-40.54,38.74h-73V357.38Z" transform="translate(-21.2 -22.19)"/></svg>